<svg width="792" height="203" viewBox="0 0 792 203" fill="none" xmlns="http://www.w3.org/2000/svg">
<path opacity="0.75" d="M68.2458 162.976C70.8318 162.976 73.3052 162.864 75.7787 162.528C49.0201 159.28 28.3327 136.542 28.3327 109.101C28.3327 79.307 52.5054 55.2256 82.4122 55.2256C109.958 55.2256 132.781 75.8348 136.042 102.492C136.267 100.028 136.492 97.5641 136.492 94.9879C136.492 57.4658 105.91 27 68.2458 27C30.5813 27 0 57.3538 0 94.9879C0 132.622 30.5813 162.976 68.2458 162.976Z" fill="#24214B"/>
<path opacity="0.75" d="M68.2458 27C65.6599 27 63.1864 27.112 60.7129 27.448C87.4716 30.6962 108.159 53.4335 108.159 80.8751C108.159 110.669 83.9862 134.75 54.0795 134.75C26.5338 134.75 3.71023 114.141 0.449719 87.4835C0.224856 89.9476 0 92.4118 0 94.9879C0 132.51 30.5813 162.976 68.2458 162.976C105.91 162.976 136.492 132.51 136.492 94.9879C136.492 57.4658 106.023 27 68.2458 27Z" fill="#0080FF"/>
<path opacity="0.75" d="M136.492 94.9879C136.492 92.4118 136.379 89.9476 136.042 87.4835C132.781 114.141 109.958 134.75 82.4122 134.75C52.5055 134.75 28.3327 110.669 28.3327 80.8751C28.3327 53.4335 49.0201 30.6962 75.7787 27.448C73.3052 27.224 70.8318 27 68.2458 27C30.5813 27 0 57.4658 0 94.9879C0 132.51 30.5813 162.976 68.2458 162.976C105.91 162.976 136.492 132.51 136.492 94.9879Z" fill="#5F38F9"/>
<path opacity="0.75" d="M0 94.9879C0 97.5641 0.112424 100.028 0.449719 102.492C3.71023 75.8348 26.5338 55.2256 54.0795 55.2256C83.9862 55.2256 108.159 79.307 108.159 109.101C108.159 136.542 87.4716 159.28 60.7129 162.528C63.1864 162.752 65.6599 162.976 68.2458 162.976C105.91 162.976 136.492 132.51 136.492 94.9879C136.492 57.4658 105.91 27 68.2458 27C30.5813 27 0 57.3538 0 94.9879Z" fill="#17C5EB"/>
<path d="M177.693 109.307V163H156.097V71.3636H176.739V86.9347H177.812C179.92 81.804 183.281 77.7273 187.895 74.7045C192.548 71.6818 198.295 70.1705 205.136 70.1705C211.46 70.1705 216.969 71.5227 221.662 74.2273C226.395 76.9318 230.054 80.8494 232.639 85.9801C235.264 91.1108 236.557 97.3352 236.517 104.653V163H214.92V107.994C214.92 101.869 213.33 97.0767 210.148 93.6165C207.006 90.1562 202.651 88.4261 197.082 88.4261C193.304 88.4261 189.943 89.2614 187 90.9318C184.097 92.5625 181.81 94.929 180.139 98.0312C178.509 101.134 177.693 104.892 177.693 109.307ZM299.04 164.79C289.852 164.79 281.918 162.881 275.236 159.062C268.594 155.205 263.483 149.756 259.903 142.716C256.324 135.636 254.534 127.304 254.534 117.719C254.534 108.293 256.324 100.02 259.903 92.9006C263.523 85.7415 268.574 80.1733 275.057 76.196C281.54 72.179 289.156 70.1705 297.906 70.1705C303.554 70.1705 308.884 71.0852 313.895 72.9148C318.946 74.7045 323.401 77.4886 327.259 81.267C331.156 85.0455 334.219 89.858 336.446 95.7045C338.673 101.511 339.787 108.432 339.787 116.466V123.088H264.676V108.531H319.085C319.045 104.395 318.151 100.716 316.401 97.4943C314.651 94.233 312.205 91.6676 309.062 89.7983C305.96 87.929 302.341 86.9943 298.205 86.9943C293.79 86.9943 289.912 88.0682 286.571 90.2159C283.23 92.3239 280.625 95.108 278.756 98.5682C276.926 101.989 275.991 105.747 275.952 109.844V122.551C275.952 127.881 276.926 132.455 278.875 136.273C280.824 140.051 283.548 142.955 287.048 144.983C290.548 146.972 294.645 147.966 299.338 147.966C302.48 147.966 305.324 147.528 307.869 146.653C310.415 145.739 312.622 144.406 314.491 142.656C316.361 140.906 317.773 138.739 318.727 136.153L338.892 138.42C337.619 143.75 335.193 148.403 331.614 152.381C328.074 156.318 323.54 159.381 318.011 161.568C312.483 163.716 306.159 164.79 299.04 164.79ZM359.012 163V40.8182H404.83C414.217 40.8182 422.092 42.5682 428.455 46.0682C434.859 49.5682 439.691 54.3807 442.952 60.5057C446.254 66.5909 447.904 73.5114 447.904 81.267C447.904 89.1023 446.254 96.0625 442.952 102.148C439.651 108.233 434.779 113.026 428.336 116.526C421.893 119.986 413.958 121.716 404.532 121.716H374.165V103.52H401.549C407.038 103.52 411.532 102.565 415.032 100.656C418.532 98.7472 421.117 96.1222 422.788 92.7812C424.498 89.4403 425.353 85.6023 425.353 81.267C425.353 76.9318 424.498 73.1136 422.788 69.8125C421.117 66.5114 418.512 63.946 414.972 62.1165C411.472 60.2472 406.958 59.3125 401.43 59.3125H381.146V163H359.012ZM487.771 40.8182V163H466.175V40.8182H487.771ZM536.349 164.849C530.542 164.849 525.312 163.815 520.658 161.747C516.045 159.639 512.386 156.537 509.681 152.44C507.016 148.344 505.684 143.293 505.684 137.287C505.684 132.116 506.638 127.841 508.548 124.46C510.457 121.08 513.062 118.375 516.363 116.347C519.664 114.318 523.383 112.787 527.519 111.753C531.695 110.679 536.011 109.903 540.465 109.426C545.835 108.869 550.19 108.372 553.531 107.935C556.871 107.457 559.298 106.741 560.809 105.787C562.36 104.793 563.136 103.261 563.136 101.193V100.835C563.136 96.3409 561.803 92.8608 559.138 90.3949C556.474 87.929 552.636 86.696 547.624 86.696C542.335 86.696 538.138 87.8494 535.036 90.1562C531.974 92.4631 529.906 95.1875 528.832 98.3295L508.667 95.4659C510.258 89.8977 512.883 85.2443 516.542 81.5057C520.201 77.7273 524.675 74.9034 529.965 73.0341C535.255 71.125 541.102 70.1705 547.505 70.1705C551.92 70.1705 556.315 70.6875 560.69 71.7216C565.065 72.7557 569.062 74.4659 572.681 76.8523C576.3 79.1989 579.204 82.4006 581.391 86.4574C583.619 90.5142 584.732 95.5852 584.732 101.67V163H563.971V150.412H563.255C561.942 152.957 560.093 155.344 557.707 157.571C555.36 159.759 552.397 161.528 548.817 162.881C545.278 164.193 541.121 164.849 536.349 164.849ZM541.957 148.98C546.292 148.98 550.05 148.125 553.232 146.415C556.414 144.665 558.86 142.358 560.57 139.494C562.32 136.631 563.195 133.509 563.195 130.128V119.33C562.519 119.886 561.366 120.403 559.735 120.881C558.144 121.358 556.354 121.776 554.366 122.134C552.377 122.491 550.408 122.81 548.46 123.088C546.511 123.366 544.82 123.605 543.388 123.804C540.167 124.241 537.283 124.957 534.738 125.952C532.192 126.946 530.184 128.338 528.712 130.128C527.241 131.878 526.505 134.145 526.505 136.929C526.505 140.906 527.957 143.909 530.86 145.938C533.763 147.966 537.462 148.98 541.957 148.98ZM646.42 164.79C637.272 164.79 629.417 162.781 622.854 158.764C616.332 154.747 611.3 149.199 607.761 142.119C604.261 135 602.511 126.807 602.511 117.54C602.511 108.233 604.3 100.02 607.88 92.9006C611.46 85.7415 616.511 80.1733 623.033 76.196C629.596 72.179 637.352 70.1705 646.3 70.1705C653.738 70.1705 660.32 71.5426 666.048 74.2869C671.815 76.9915 676.408 80.8295 679.829 85.8011C683.249 90.733 685.198 96.5 685.675 103.102H665.033C664.198 98.6875 662.21 95.0085 659.067 92.0653C655.965 89.0824 651.809 87.5909 646.599 87.5909C642.184 87.5909 638.306 88.7841 634.965 91.1705C631.624 93.517 629.019 96.8977 627.15 101.312C625.32 105.727 624.406 111.017 624.406 117.182C624.406 123.426 625.32 128.795 627.15 133.29C628.979 137.744 631.545 141.185 634.846 143.611C638.187 145.997 642.104 147.19 646.599 147.19C649.781 147.19 652.624 146.594 655.13 145.401C657.675 144.168 659.803 142.398 661.513 140.091C663.224 137.784 664.397 134.98 665.033 131.679H685.675C685.158 138.162 683.249 143.909 679.948 148.92C676.647 153.892 672.153 157.79 666.465 160.614C660.778 163.398 654.096 164.79 646.42 164.79ZM743.977 164.79C734.79 164.79 726.855 162.881 720.173 159.062C713.531 155.205 708.42 149.756 704.841 142.716C701.261 135.636 699.472 127.304 699.472 117.719C699.472 108.293 701.261 100.02 704.841 92.9006C708.46 85.7415 713.511 80.1733 719.994 76.196C726.477 72.179 734.094 70.1705 742.844 70.1705C748.491 70.1705 753.821 71.0852 758.832 72.9148C763.884 74.7045 768.338 77.4886 772.196 81.267C776.094 85.0455 779.156 89.858 781.384 95.7045C783.611 101.511 784.724 108.432 784.724 116.466V123.088H709.614V108.531H764.023C763.983 104.395 763.088 100.716 761.338 97.4943C759.588 94.233 757.142 91.6676 754 89.7983C750.898 87.929 747.278 86.9943 743.142 86.9943C738.727 86.9943 734.849 88.0682 731.509 90.2159C728.168 92.3239 725.563 95.108 723.693 98.5682C721.864 101.989 720.929 105.747 720.889 109.844V122.551C720.889 127.881 721.864 132.455 723.812 136.273C725.761 140.051 728.486 142.955 731.986 144.983C735.486 146.972 739.582 147.966 744.276 147.966C747.418 147.966 750.261 147.528 752.807 146.653C755.352 145.739 757.56 144.406 759.429 142.656C761.298 140.906 762.71 138.739 763.665 136.153L783.83 138.42C782.557 143.75 780.131 148.403 776.551 152.381C773.011 156.318 768.477 159.381 762.949 161.568C757.42 163.716 751.097 164.79 743.977 164.79Z" fill="#F0FBFF"/>
</svg>
